<?xml version="1.0" standalone="no"?>
<!DOCTYPE svg PUBLIC "-//W3C//DTD SVG 20010904//EN"
 "http://www.w3.org/TR/2001/REC-SVG-20010904/DTD/svg10.dtd">
<svg version="1.0" xmlns="http://www.w3.org/2000/svg"
 width="260.000000pt" height="260.000000pt" viewBox="0 0 260.000000 260.000000"
 preserveAspectRatio="xMidYMid meet">
<metadata>
Created by potrace 1.11, written by Peter Selinger 2001-2013
</metadata>
<g transform="translate(0.000000,260.000000) scale(0.100000,-0.100000)"
fill="#000000" stroke="none">
<path d="M308 1959 c-23 -12 -46 -35 -58 -59 -19 -38 -20 -58 -20 -602 l0
-563 23 -39 c45 -79 20 -76 657 -76 637 0 612 -3 657 76 l23 39 0 563 c0 544
-1 564 -20 602 -13 26 -34 47 -60 60 -38 19 -57 20 -602 20 -541 -1 -564 -2
-600 -21z"/>
<path d="M1781 1896 c-13 -7 -30 -24 -37 -37 -17 -30 -18 -120 -2 -154 24 -52
43 -55 353 -55 310 0 329 3 353 55 15 33 15 117 0 150 -24 52 -42 55 -355 55
-220 -1 -294 -4 -312 -14z"/>
<path d="M1781 1416 c-35 -19 -50 -54 -51 -113 0 -64 15 -100 51 -119 41 -21
587 -21 628 0 35 19 51 55 51 116 0 61 -16 97 -51 116 -39 20 -592 20 -628 0z"/>
<path d="M1781 936 c-35 -19 -50 -54 -51 -113 0 -64 15 -100 51 -119 41 -21
587 -21 628 0 35 19 51 55 51 116 0 61 -16 97 -51 116 -39 20 -592 20 -628 0z"/>
</g>
</svg>
